<svg xmlns="http://www.w3.org/2000/svg" viewBox="0 0 243.99 243.33"><defs><style>.cls-1{fill:#664690;}</style></defs><g id="Layer_2" data-name="Layer 2"><g id="Layer_1-2" data-name="Layer 1"><path class="cls-1" d="M244,121c0,12.64.1,25.28-.05,37.92-.07,6.25-2.5,11.35-8.58,14-7.13,3.13-13.44.22-15.78-7.1-3.22-10-6.14-20.2-9.92-30-3.14-8.18-8.75-14.87-15.71-20.27-7.8-6.07-15.68-12.06-23.54-18-2.33-1.78-4.47-4.14-7.94-1.75-.55.38-2.42-1.15-3.69-1.78-1-.49-2-1-3-1.42a13,13,0,0,0,0,3.11c.56,2.42,1.36,4.79,2,7.2.93,3.42.35,4.89-2.77,6.51-2.06,1.07-4.26,1.86-6.35,2.88a32.29,32.29,0,0,0-15.87,17.17,127.29,127.29,0,0,1-7.72,15,10.2,10.2,0,0,0-.43,10.4c1.4,2.83,2.85,5.63,4.44,8.35,1.91,3.27,5.3,4.39,8.63,5.49,2.05.68,4.15,1.23,6.21,1.87,4.87,1.51,7,4.48,7.8,9.54,1.32,8.73-.53,17-4,24.79-3.64,8.19-1.55,15.12,3.41,21.62,3.57,4.68,7.65,9,11.44,13.48a10.24,10.24,0,0,1,1.18,2.52,12.57,12.57,0,0,1-2.74.8c-2,.12-4,.05-6,.05-22.62,0-45.24,0-67.87,0a29.42,29.42,0,0,1-8.84-1.1c-6.75-2.22-8.52-8-8.75-14.27-.27-7.38-.23-14.78-.19-22.17,0-9.06.25-18.12.34-27.18,0-5.1,0-5.16-5.12-5.2q-25.44-.19-50.88-.39C4.92,172.88.43,168.4.4,159.49.35,139,.4,118.41.36,97.86c0-4.23-.39-8.47-.36-12.7A17.27,17.27,0,0,1,3.91,73.85c4.11-4.93,9.51-5,15.07-4,5,.93,9.87,2.33,14.8,3.5C41,75.06,45.22,79.8,47.49,86.55c.74,2.21,2,3.1,4.36,3.17,4.26.12,5.63,1.62,5.51,5.91-.2,7.22-.46,14.45-.93,21.66-.45,7,3.2,13.46,10.05,17,4,2.07,8,4.07,12,6,5.76,2.82,10.42,1.09,12.52-5,2.15-6.2,3.79-12.58,6-18.76a49,49,0,0,1,4.9-10,11.21,11.21,0,0,1,5.14-4c10.21-3.93,15.28-10.79,15.63-21.72.13-4.06,1.5-5.24,5.62-5.06,3.57.15,7.15.19,10.72.2a7.32,7.32,0,0,0,2-.59,12,12,0,0,0-.85-1.72c-2.5-3.55-2.33-4.14,1.79-5.57,1.41-.49,2.87-.85,4.27-1.39s2.08-1.34.43-2.41c-8.46-5.55-16.83-11.28-25.45-16.57-9.84-6-20-11.61-29.89-17.51-5.71-3.4-11.32-7-16.89-10.61S68.14,12,71.72,6.49C74.3,2.52,77.8.15,82.87.17c21.13.1,42.25,0,63.38,0,5.22,0,10.49-.48,15.66,0,7.68.78,12.64,6.66,12.68,14.46q.12,25.08,0,50.15c0,2.92.53,4.66,3.87,4.45,1.56-.09,3.15.24,4.72.25,15.47,0,30.94,0,46.42,0,9.5,0,14.35,4.82,14.37,14.28C244,96.24,244,108.64,244,121Z"/></g></g></svg>